<?xml version="1.0" encoding="utf-8"?>
<!-- Generator: Adobe Illustrator 18.1.1, SVG Export Plug-In . SVG Version: 6.00 Build 0)  -->
<!DOCTYPE svg PUBLIC "-//W3C//DTD SVG 1.1//EN" "http://www.w3.org/Graphics/SVG/1.1/DTD/svg11.dtd">
<svg version="1.1" id="Layer_1" xmlns="http://www.w3.org/2000/svg" xmlns:xlink="http://www.w3.org/1999/xlink" x="0px" y="0px"
	 viewBox="0 0 100 100" enable-background="new 0 0 100 100" xml:space="preserve">
<g enable-background="new    ">
	<path fill="#706F6F" d="M47,69c-7.2,0-13.3-2.5-18.4-7.5c-5-5-7.6-11.1-7.6-18.2c0-7.2,2.6-13.3,7.6-18.4
		c5.1-5.1,11.2-7.6,18.3-7.6c7.1,0,13.2,2.6,18.3,7.7C70.4,30,73,36.1,73,43.3c0,7.2-2.5,13.2-7.6,18.2C60.4,66.5,54.2,69,47,69z
		 M47,64.3c5.8,0,10.8-2.1,15-6.2c4.2-4.1,6.2-9.1,6.3-14.9c0-5.8-2.1-10.8-6.2-15c-4.2-4.2-9.2-6.2-15-6.3c-5.8,0-10.8,2.1-15,6.2
		c-4.2,4.2-6.2,9.2-6.3,15c0,5.8,2.1,10.8,6.2,14.9C36.2,62.2,41.2,64.3,47,64.3z M73.9,66.8c-5.7,6.5-13.1,10.3-22.1,11.2l0,5
		l7.1,0c0.7,0,1.3,0.2,1.8,0.7c0.5,0.4,0.7,1,0.7,1.6c0,0.6-0.2,1.2-0.7,1.7c-0.5,0.5-1.1,0.7-1.8,0.7l-18.7,0
		c-0.7,0-1.2-0.2-1.7-0.7c-0.4-0.5-0.7-1.1-0.7-1.7c0-0.6,0.2-1.2,0.7-1.6c0.4-0.4,1-0.7,1.7-0.7l6.9,0l0-4.7
		c-4.6,0-9.1-0.8-13.4-2.5c-0.6-0.3-1-0.7-1.2-1.3c-0.2-0.6-0.2-1.2,0-1.8c0.2-0.6,0.7-1,1.2-1.2c0.6-0.2,1.2-0.3,1.8-0.1
		c3.7,1.5,7.6,2.2,11.6,2.2c8.8,0,16.1-2.9,22-8.7c5.8-5.8,8.7-13.1,8.8-22c0-5.3-1.3-10.2-4-14.8c-2.7-4.6-6.4-8.3-11.1-11.2
		c-0.6-0.3-1-0.8-1.1-1.4c-0.1-0.6-0.1-1.2,0.2-1.8c0.3-0.6,0.8-1,1.4-1.1c0.6-0.1,1.2-0.1,1.8,0.2c5.5,3.2,9.8,7.5,12.9,12.9
		C81,31,82.5,36.8,82.5,43C82.5,52.4,79.7,60.3,73.9,66.8z"/>
</g>
</svg>
