<?xml version="1.0" encoding="utf-8"?>
<!-- Generator: Adobe Illustrator 18.1.1, SVG Export Plug-In . SVG Version: 6.00 Build 0)  -->
<!DOCTYPE svg PUBLIC "-//W3C//DTD SVG 1.1//EN" "http://www.w3.org/Graphics/SVG/1.1/DTD/svg11.dtd">
<svg version="1.1" id="Layer_1" xmlns="http://www.w3.org/2000/svg" xmlns:xlink="http://www.w3.org/1999/xlink" x="0px" y="0px"
	 viewBox="0 0 100 100" enable-background="new 0 0 100 100" xml:space="preserve">
<g>
	<path fill="#706F6F" d="M77.5,51c0,7.7-2.7,14.3-8.2,19.8C63.8,76.2,57.2,79,49.5,79s-14.3-2.7-19.8-8.2
		c-5.5-5.5-8.2-12.1-8.2-19.8s2.7-14.3,8.2-19.8s12.1-8.2,19.8-8.2s14.3,2.7,19.7,8.2C74.6,36.7,77.5,43.3,77.5,51z M74,51
		c0-6.8-2.4-12.5-7.2-17.3c-4.8-4.8-10.5-7.2-17.3-7.2S37,28.9,32.2,33.7C27.4,38.5,25,44.3,25,51s2.4,12.5,7.2,17.3
		c4.7,4.8,10.5,7.2,17.3,7.2s12.5-2.4,17.3-7.2C71.5,63.6,74,57.8,74,51z M65.1,58.6c-0.2,0.3-0.3,0.7-0.7,1.2
		c-0.3,0.5-0.9,1.3-1.8,2.4c-0.9,1.1-1.9,2.1-3,2.9c-1.1,0.8-2.5,1.6-4.3,2.4c-1.8,0.7-3.8,1.1-5.9,1.1c-0.1,0-0.2,0-0.2,0
		c-2,0-3.8-0.3-5.6-1c-1.8-0.7-3.2-1.5-4.3-2.4s-2.1-1.9-3-3c-0.9-1.1-1.5-2-1.7-2.5c-0.3-0.5-0.5-0.9-0.6-1.2
		c-0.2-0.5-0.2-0.9-0.1-1.4c0.2-0.5,0.5-0.8,0.9-1c0.5-0.2,0.8-0.2,1.3,0s0.8,0.5,1,0.9c0.2,0.2,0.3,0.5,0.6,0.9
		c0.2,0.4,0.7,1.1,1.4,2c0.7,0.9,1.5,1.7,2.4,2.4c0.8,0.7,2,1.3,3.4,1.9c1.4,0.6,2.9,0.8,4.4,0.8c0.1,0,0.2,0,0.2,0
		c1.7-0.1,3.2-0.4,4.7-0.9c1.5-0.6,2.6-1.2,3.5-1.9c0.8-0.7,1.7-1.5,2.5-2.4c0.8-0.9,1.2-1.5,1.4-1.9c0.2-0.3,0.3-0.7,0.5-0.8
		c0.2-0.5,0.5-0.7,0.9-0.9c0.5-0.2,0.9-0.2,1.4,0c0.5,0.2,0.7,0.3,0.7,0.3s0.1,0.2,0.2,0.7C65.2,57.7,65.2,58.1,65.1,58.6z
		 M37.3,45.8c0-1,0.3-1.7,1-2.5c0.7-0.7,1.5-1,2.5-1s1.7,0.3,2.5,1c0.7,0.7,1,1.5,1,2.5c0,1-0.3,1.7-1,2.5c-0.7,0.7-1.5,1-2.5,1
		s-1.7-0.3-2.5-1C37.6,47.5,37.3,46.7,37.3,45.8z M54.7,45.8c0-1,0.3-1.7,1-2.5c0.7-0.7,1.5-1,2.5-1c1,0,1.7,0.3,2.5,1
		c0.7,0.7,1,1.5,1,2.5c0,1-0.3,1.7-1,2.5c-0.7,0.7-1.5,1-2.5,1c-1,0-1.7-0.3-2.5-1C55.1,47.5,54.7,46.7,54.7,45.8z"/>
</g>
</svg>
