<?xml version="1.0" encoding="utf-8"?>
<!-- Generator: Adobe Illustrator 18.1.1, SVG Export Plug-In . SVG Version: 6.00 Build 0)  -->
<!DOCTYPE svg PUBLIC "-//W3C//DTD SVG 1.1//EN" "http://www.w3.org/Graphics/SVG/1.1/DTD/svg11.dtd">
<svg version="1.1" id="Layer_1" xmlns="http://www.w3.org/2000/svg" xmlns:xlink="http://www.w3.org/1999/xlink" x="0px" y="0px"
	 viewBox="0 0 100 100" enable-background="new 0 0 100 100" xml:space="preserve">
<g enable-background="new    ">
	<path fill="#706F6F" d="M78.1,68.4c0,1.3-0.4,2.3-1.3,3.2c-0.9,0.9-1.9,1.3-3.2,1.3l-39,0c-1.3,0-2.3-0.4-3.2-1.3
		c-0.9-0.9-1.3-1.9-1.3-3.2l0-24c0-1.2,0.4-2.3,1.3-3.2c0.9-0.9,1.9-1.3,3.2-1.3H36l0-6c0-1.3,0.4-2.3,1.3-3.2
		c0.9-0.9,1.9-1.3,3.2-1.3h0.3l33.6,6.8c2.5,0.7,3.7,2.2,3.7,4.6L78.1,68.4z M75.1,41.4c0,0.5-0.3,0.9-0.9,1.1
		c-0.6,0.2-1.3,0.4-2.1,0.4l-37.5,0c-0.4,0-0.8,0.2-1.1,0.5c-0.3,0.3-0.4,0.7-0.4,1l0,24c0,0.4,0.1,0.8,0.4,1.1
		c0.3,0.3,0.6,0.4,1.1,0.4l39,0c0.4,0,0.8-0.1,1.1-0.4c0.3-0.3,0.4-0.6,0.4-1.1L75.1,41.4z M42,56.4c0,0.8-0.3,1.5-0.9,2.1
		c-0.6,0.6-1.3,0.8-2.1,0.8c-0.8,0-1.5-0.3-2.1-0.8C36.3,58,36,57.3,36,56.4s0.3-1.6,0.9-2.2c0.6-0.6,1.3-0.9,2.1-0.9
		c0.8,0,1.5,0.3,2.1,0.9C41.7,54.9,42,55.6,42,56.4z M39,39.9l33,0c0.4,0,0.7-0.1,0.9-0.2c0.2-0.1,0.4-0.2,0.5-0.4
		c0.1-0.1,0.1-0.2,0-0.3l-33.1-6.7c-0.4,0-0.7,0.2-0.9,0.5c-0.3,0.3-0.4,0.7-0.4,1L39,39.9z"/>
</g>
</svg>
