<?xml version="1.0" encoding="utf-8"?>
<!-- Generator: Adobe Illustrator 18.1.1, SVG Export Plug-In . SVG Version: 6.00 Build 0)  -->
<!DOCTYPE svg PUBLIC "-//W3C//DTD SVG 1.1//EN" "http://www.w3.org/Graphics/SVG/1.1/DTD/svg11.dtd">
<svg version="1.1" id="Layer_1" xmlns="http://www.w3.org/2000/svg" xmlns:xlink="http://www.w3.org/1999/xlink" x="0px" y="0px"
	 viewBox="0 0 100 100" enable-background="new 0 0 100 100" xml:space="preserve">
<g>
	
		<rect x="27.1" y="44.6" transform="matrix(0.7071 -0.7071 0.7071 0.7071 -21.7995 39.2439)" fill="#706F6F" width="18.7" height="2.7"/>
	
		<rect x="44.4" y="34.7" transform="matrix(0.7071 -0.7071 0.7071 0.7071 -8.1385 52.2612)" fill="#706F6F" width="29.2" height="2.6"/>
	<path fill="#706F6F" d="M74.2,44.2v33.3c0,0.2-0.2,0.4-0.4,0.4h-8.8c-0.2,0-0.4-0.2-0.4-0.4V44.2c0-0.2,0.2-0.4,0.4-0.4h8.8
		C74,43.7,74.2,43.9,74.2,44.2z"/>
	<path fill="#706F6F" d="M56.2,54.5v23c0,0.3-0.2,0.5-0.5,0.5h-8.8c-0.3,0-0.5-0.2-0.5-0.5v-23c0-0.3,0.2-0.5,0.5-0.5h8.8
		C55.9,54,56.2,54.2,56.2,54.5z"/>
	<path fill="#706F6F" d="M37.8,62.4v15.2c0,0.2-0.1,0.3-0.3,0.3h-9c-0.2,0-0.3-0.1-0.3-0.3V62.4c0-0.2,0.1-0.3,0.3-0.3h9
		C37.7,62.1,37.8,62.2,37.8,62.4z"/>
	
		<rect x="41.3" y="42.7" transform="matrix(0.7071 0.7071 -0.7071 0.7071 44.5913 -19.7087)" fill="#706F6F" width="9.6" height="2.6"/>
	<polygon fill="#706F6F" points="74.1,31.4 74.1,20.8 63.6,20.8 	"/>
</g>
</svg>
