<?xml version="1.0" encoding="utf-8"?>
<!-- Generator: Adobe Illustrator 18.1.1, SVG Export Plug-In . SVG Version: 6.00 Build 0)  -->
<!DOCTYPE svg PUBLIC "-//W3C//DTD SVG 1.1//EN" "http://www.w3.org/Graphics/SVG/1.1/DTD/svg11.dtd">
<svg version="1.1" id="Layer_1" xmlns="http://www.w3.org/2000/svg" xmlns:xlink="http://www.w3.org/1999/xlink" x="0px" y="0px"
	 viewBox="0 0 100 100" enable-background="new 0 0 100 100" xml:space="preserve">
<g enable-background="new    ">
	<path fill="#706F6F" d="M79.3,42.1L51.2,81c-0.3,0.4-0.7,0.6-1.1,0.6c-0.4,0-0.8-0.2-1-0.6L20.8,42.2c-0.8-1-0.9-2.1-0.3-3.1
		l7.9-15.3c0.6-1.1,1.5-1.6,2.8-1.7L49.7,22l0.1,0l18.8-0.1c1.2,0,2.1,0.5,2.7,1.6L79.5,39C80.2,40.1,80.1,41.1,79.3,42.1z M24.9,39
		l10.3-0.1l-4.1-12L24.9,39z M36.4,42.6l-10.8,0.1l20.3,27.8L36.4,42.6z M46.2,25.7l-11.5,0.1l3.8,11.3L46.2,25.7z M40.4,42.6
		l9.7,28.6l9.8-28.7L40.4,42.6z M50,27l-8.2,11.8l17.4-0.1L50,27z M62,36.2l3.6-10.6l-12,0.1L62,36.2z M54.3,70.4l20.4-28.1
		l-10.8,0.1L54.3,70.4z M69.1,27.2l-4,11.5l10-0.1L69.1,27.2z"/>
</g>
</svg>
