<?xml version="1.0" encoding="utf-8"?>
<!-- Generator: Adobe Illustrator 18.1.1, SVG Export Plug-In . SVG Version: 6.00 Build 0)  -->
<!DOCTYPE svg PUBLIC "-//W3C//DTD SVG 1.1//EN" "http://www.w3.org/Graphics/SVG/1.1/DTD/svg11.dtd">
<svg version="1.1" id="Layer_1" xmlns="http://www.w3.org/2000/svg" xmlns:xlink="http://www.w3.org/1999/xlink" x="0px" y="0px"
	 viewBox="0 0 100 100" enable-background="new 0 0 100 100" xml:space="preserve">
<path fill="#706F6F" d="M77.4,42.3h-0.2L49.6,23.3c0,0-0.1-0.1-0.1-0.1l0,0c-0.2-0.1-0.5-0.1-0.6,0.1l-0.1,0.1L21.3,42.3h0
	c-0.2,0-0.4,0.2-0.4,0.4v1.8c0,0.2,0.2,0.4,0.4,0.4h8.3v25.4h-8.3c-0.2,0-0.4,0.2-0.4,0.4v1.8c0,0.2,0.2,0.4,0.4,0.4h55.9
	c0.2,0,0.4-0.2,0.4-0.4v-1.8c0-0.2-0.2-0.4-0.4-0.4h-7.4V45h7.5c0.2,0,0.4-0.2,0.4-0.4v-1.8C77.8,42.5,77.6,42.3,77.4,42.3z
	 M49.3,26.3l23.2,16H26L49.3,26.3z M53.6,45v25.4h-7.7V45H53.6z M34,45h7.5v25.4H34V45z M65.4,70.4h-7.5V45h7.5V70.4z"/>
</svg>
