<?xml version="1.0" encoding="utf-8"?>
<!-- Generator: Adobe Illustrator 18.1.1, SVG Export Plug-In . SVG Version: 6.00 Build 0)  -->
<!DOCTYPE svg PUBLIC "-//W3C//DTD SVG 1.1//EN" "http://www.w3.org/Graphics/SVG/1.1/DTD/svg11.dtd">
<svg version="1.1" id="Layer_1" xmlns="http://www.w3.org/2000/svg" xmlns:xlink="http://www.w3.org/1999/xlink" x="0px" y="0px"
	 viewBox="0 0 100 100" enable-background="new 0 0 100 100" xml:space="preserve">
<g enable-background="new    ">
	<path fill="#706F6F" d="M80,45.7c0.8,0.8,1.2,1.7,1.2,2.7l0,4c0,1.1-0.4,2-1.2,2.6c-0.8,0.7-1.7,1.1-2.8,1.4l-5.3,1.4
		c-0.3,1.1-0.8,2.2-1.4,3.4l2.8,4.7c1.5,2.4,1.5,4.2,0,5.7l-2.8,2.9c-0.9,0.8-1.9,1.1-3,1.1c-1.1,0-2-0.3-3-1L60,71.7
		c-1.2,0.7-2.4,1.2-3.7,1.6l-1.1,5.2c-0.2,1.1-0.7,2-1.5,2.8c-0.8,0.8-1.7,1.2-2.8,1.2l-4,0c-1,0-1.9-0.4-2.6-1.2
		c-0.7-0.8-1.2-1.7-1.4-2.8l-1.3-5.2c-1.3-0.4-2.6-1-3.9-1.6L33,74.6c-0.9,0.7-1.9,1-3,1c-1.1,0-2.1-0.4-2.9-1.1l-2.8-2.9
		c-1.5-1.4-1.5-3.3,0-5.7l2.9-4.9c-0.5-1.1-0.9-2.1-1.3-3.2l-5.3-1.4c-1.1-0.3-2-0.7-2.8-1.4c-0.8-0.7-1.2-1.6-1.2-2.6l0-4
		c0-1,0.4-1.9,1.2-2.7c0.8-0.8,1.7-1.3,2.8-1.5l5.2-1.3c0.3-1.1,0.8-2.2,1.4-3.4l-2.9-4.9c-1.5-2.4-1.5-4.2,0-5.7l2.8-2.9
		c0.8-0.8,1.8-1.1,2.9-1.1c1.1,0,2.1,0.4,3,0.9l4.7,2.9c1.3-0.7,2.6-1.2,3.9-1.6l1.3-5.2c0.6-2.7,1.9-4,4-4l4,0c1.1,0,2,0.4,2.8,1.2
		c0.8,0.8,1.3,1.7,1.4,2.8l1.1,5.2c1.3,0.4,2.5,1,3.7,1.6l4.5-2.9c0.9-0.6,1.9-0.9,3-0.9c1.1,0,2,0.3,3,1.1l2.8,2.9
		c1.5,1.4,1.5,3.3,0,5.7l-2.8,4.7c0.7,1.3,1.2,2.5,1.5,3.7l5.2,1.3C78.3,44.4,79.2,44.9,80,45.7z M77.2,48.7
		c-0.1-0.3-0.4-0.4-0.9-0.5l-7.4-1.6l-0.6-2.3c-0.3-1-0.8-2-1.4-3l-1-2l4-6.7c0.2-0.3,0.3-0.6,0.4-0.9L67.6,29
		c-0.3,0-0.5,0.1-0.9,0.4l-6.4,4l-2.1-1c-1-0.5-2-0.9-3-1.3l-2.1-0.8l-1.8-7.7c0-0.1,0-0.3-0.1-0.5L50.9,22l-3.8,0
		c-0.2,0.3-0.3,0.6-0.4,1l-1.9,7.3l-2.1,0.8c-1.1,0.3-2.1,0.8-3.2,1.3l-2.1,1.1l-6.8-4.3C30.5,29.1,30.3,29,30,29l-2.7,2.6
		c0.1,0.3,0.2,0.5,0.4,0.9l4.2,6.8l-1,2c-0.5,1-0.9,2-1.3,2.9L29,46.5l-7.7,1.6c-0.1,0-0.3,0.1-0.5,0.3h-0.1l0,3.8
		c0.3,0.2,0.6,0.3,1,0.4l7.4,1.9l0.6,2.1c0.3,0.8,0.6,1.7,1.1,2.6l1,2l-4.2,6.8c-0.2,0.3-0.3,0.6-0.4,0.9l2.6,2.6
		c0.3,0,0.5-0.1,0.8-0.4l6.7-4.2l2.1,1.1c1,0.5,2.1,1,3.3,1.4l2.1,0.6l1.8,7.4c0.1,0.3,0.2,0.6,0.4,0.9l3.7,0
		c0.3-0.2,0.4-0.5,0.5-0.9l1.6-7.4l2.1-0.8c1.1-0.3,2.1-0.8,3-1.3l2.1-1l6.6,4.2c0.2,0.1,0.4,0.2,0.8,0.3l2.7-2.6
		c-0.1-0.3-0.2-0.5-0.4-0.9l-4-6.7l1-1.9c0.5-1,0.9-2,1.3-2.9l0.8-2.1l7.4-1.9c0.3-0.1,0.6-0.2,0.9-0.4L77.2,48.7z M61.1,50.3
		c0,3.4-1.2,6.2-3.6,8.6c-2.4,2.4-5.3,3.5-8.6,3.5c-3.4,0-6.2-1.2-8.6-3.5c-2.4-2.4-3.5-5.2-3.5-8.6c0-3.4,1.2-6.2,3.5-8.6
		c2.4-2.4,5.2-3.5,8.6-3.5c3.4,0,6.2,1.2,8.6,3.5C59.9,44.1,61.1,46.9,61.1,50.3z M57,50.3c0-2.2-0.8-4.1-2.4-5.7
		c-1.6-1.6-3.5-2.4-5.7-2.4c-2.2,0-4.1,0.8-5.7,2.4c-1.6,1.6-2.4,3.5-2.4,5.7c0,2.2,0.8,4.1,2.4,5.7c1.6,1.6,3.5,2.4,5.7,2.4
		c2.2,0,4.1-0.8,5.7-2.4C56.2,54.4,57,52.5,57,50.3z"/>
</g>
</svg>
