<?xml version="1.0" encoding="utf-8"?>
<!-- Generator: Adobe Illustrator 18.1.1, SVG Export Plug-In . SVG Version: 6.00 Build 0)  -->
<!DOCTYPE svg PUBLIC "-//W3C//DTD SVG 1.1//EN" "http://www.w3.org/Graphics/SVG/1.1/DTD/svg11.dtd">
<svg version="1.1" id="Layer_1" xmlns="http://www.w3.org/2000/svg" xmlns:xlink="http://www.w3.org/1999/xlink" x="0px" y="0px"
	 viewBox="0 0 100 100" enable-background="new 0 0 100 100" xml:space="preserve">
<g enable-background="new    ">
	<path fill="#706F6F" d="M65.8,33.8l0,8.8c0,2.6-0.5,5.3-1.6,8.4c-1.1,3-2.7,5.4-4.9,7.2l15.2,7.2l0.9,0.4c0.6,0.2,1.2,0.6,1.8,1.2
		c0.6,0.6,0.9,1.2,0.9,1.9l0,5.3c0,0.9-0.3,1.8-1,2.5c-0.7,0.7-1.5,1-2.5,1l-49,0.1c-0.9,0-1.8-0.3-2.5-1c-0.7-0.7-1-1.5-1-2.5
		l0-5.3c0-0.6,0.3-1.2,1-1.8c0.7-0.6,1.2-1,1.5-1.3c0.4-0.2,0.7-0.4,1-0.4L40.9,58c-2.2-1.7-3.8-4.2-4.9-7.2
		c-1.1-3.1-1.7-5.8-1.7-8.2l0-8.8c0-2.9,1.6-5.7,5-8.3c3.3-2.6,6.9-4,10.7-4c3.8,0,7.4,1.3,10.8,3.9C64.1,28.1,65.8,30.9,65.8,33.8z
		 M41.7,28c-2.7,2-4,3.9-4,5.8l0,8.8c0,2,0.5,4.3,1.4,6.8c1,2.6,2.3,4.5,4,5.8c0.9,0.9,1.4,2,1.2,3.2c-0.1,1.3-0.8,2.2-2,2.7
		L27,68.6c-0.9,0.4-1.4,1.1-1.4,2l0,3.6l49-0.1l0-3.5c0-1.1-0.5-1.8-1.4-2.1H73l-15.2-7.2c-1.2-0.6-1.8-1.5-2-2.8
		c-0.1-1.3,0.3-2.3,1.3-3.1c1.7-1.4,2.9-3.4,3.8-5.9c0.9-2.6,1.3-4.9,1.3-6.9l0-8.8c0-1.9-1.3-3.8-4-5.8c-2.6-2-5.4-2.9-8.3-2.9
		C47.1,25.1,44.4,26.1,41.7,28z"/>
</g>
</svg>
