<?xml version="1.0" encoding="utf-8"?>
<!-- Generator: Adobe Illustrator 18.1.1, SVG Export Plug-In . SVG Version: 6.00 Build 0)  -->
<!DOCTYPE svg PUBLIC "-//W3C//DTD SVG 1.1//EN" "http://www.w3.org/Graphics/SVG/1.1/DTD/svg11.dtd">
<svg version="1.1" id="Layer_1" xmlns="http://www.w3.org/2000/svg" xmlns:xlink="http://www.w3.org/1999/xlink" x="0px" y="0px"
	 viewBox="0 0 100 100" enable-background="new 0 0 100 100" xml:space="preserve">
<g enable-background="new    ">
	<path fill="#706F6F" d="M79.9,73.1c-0.5,0.6-1.1,0.8-1.8,0.6l-9-2l-3.2,8.6c-0.2,0.8-0.8,1.2-1.6,1.2h-0.1c-0.7,0-1.2-0.3-1.6-0.9
		l-9.5-17.3c-0.6,0.1-1.2,0.1-1.8,0.1c-0.7,0-1.4,0-2-0.1L40,80.5c-0.3,0.7-0.8,1-1.6,1h-0.1c-0.8-0.1-1.4-0.5-1.6-1.2l-3.2-8.6
		l-9,2c-0.8,0.2-1.4,0-1.8-0.6c-0.5-0.6-0.5-1.3-0.1-2l10.6-19.4c-1.2-2.6-1.8-5.3-1.8-8.1c0-5.5,1.9-10.2,5.8-14.1
		c3.9-3.9,8.6-5.8,14.1-5.8c5.5,0,10.2,1.9,14.1,5.8c3.9,3.9,5.8,8.6,5.8,14.1c0,2.8-0.6,5.5-1.7,8l10.6,19.5
		C80.4,71.8,80.3,72.5,79.9,73.1z M45.5,62.6c-4.2-1.2-7.6-3.6-10.3-7.1l-7.6,13.9l6.7-1.6c1.1-0.2,1.8,0.2,2.1,1.2l2.3,6.3
		L45.5,62.6z M51.2,59.8c4.5,0,8.3-1.6,11.5-4.8c3.2-3.2,4.8-7,4.8-11.5c0-4.4-1.6-8.3-4.8-11.5c-3.2-3.2-7-4.8-11.5-4.8
		s-8.3,1.6-11.5,4.8c-3.2,3.2-4.7,7-4.8,11.5c0,4.4,1.6,8.3,4.7,11.5C42.9,58.2,46.8,59.8,51.2,59.8z M75,69.3l-7.7-14.1
		c-2.6,3.7-6.1,6.2-10.5,7.5l7,12.7l2.3-6.3c0.4-1.1,1.1-1.5,2.1-1.2L75,69.3z"/>
</g>
</svg>
