<?xml version="1.0" encoding="utf-8"?>
<!-- Generator: Adobe Illustrator 18.1.1, SVG Export Plug-In . SVG Version: 6.00 Build 0)  -->
<!DOCTYPE svg PUBLIC "-//W3C//DTD SVG 1.1//EN" "http://www.w3.org/Graphics/SVG/1.1/DTD/svg11.dtd">
<svg version="1.1" id="Layer_1" xmlns="http://www.w3.org/2000/svg" xmlns:xlink="http://www.w3.org/1999/xlink" x="0px" y="0px"
	 viewBox="0 0 100 100" enable-background="new 0 0 100 100" xml:space="preserve">
<g opacity="0.8">
	<path fill="#FFFFFF" d="M81.8,27c0.1,0.9,0,2.4-0.4,4.6c-0.4,2.1-1.1,3.9-2.3,5.3c-2.3,2.9-5.8,4.4-10.6,4.6
		c-1.3,3.9-3.4,7.1-6.4,9.8c-3,2.6-6.4,4.2-10.3,4.6l0.2,14l6.2-0.1c0.6,0,1.1,0.2,1.5,0.6c0.4,0.4,0.6,0.9,0.6,1.4
		c0,0.5-0.2,1-0.6,1.4c-0.4,0.4-0.9,0.6-1.4,0.6l-16.3,0.2c-0.6,0-1.1-0.2-1.5-0.5c-0.4-0.4-0.6-0.8-0.6-1.4c0-0.5,0.2-1,0.6-1.5
		c0.4-0.4,0.9-0.6,1.4-0.7l6.1-0.1l-0.2-14c-3.9-0.4-7.4-1.8-10.5-4.4c-3.1-2.5-5.3-5.7-6.6-9.6c-4.6-0.1-8.1-1.5-10.4-4.3
		c-1.2-1.4-2-3.2-2.4-5.3c-0.4-2.1-0.6-3.6-0.5-4.5c0.1-0.9,0.1-1.7,0.2-2.3c0.2-1.1,0.9-1.7,2-1.7l9.6-0.1l0-2
		c0-0.6,0.2-1.1,0.6-1.5c0.4-0.4,0.9-0.6,1.4-0.6l36.4-0.5c0.5,0,1,0.2,1.4,0.5c0.4,0.4,0.6,0.9,0.7,1.4l0,2l9.9-0.1
		c1.1,0,1.8,0.5,2,1.6C81.6,25.3,81.7,26.1,81.8,27z M29.6,37.8c-0.2-1.2-0.3-2.2-0.3-3.2l-0.1-6.8l-7.8,0.1c0,3.1,0.6,5.5,2,7.2
		C24.7,36.7,26.8,37.6,29.6,37.8z M65.5,23.3l-32.4,0.4l0.1,10.9c0.1,4.8,1.7,8.9,4.9,12.3c3.2,3.4,7,5.1,11.5,5
		c4.5-0.1,8.3-1.8,11.4-5.3c3.1-3.5,4.6-7.6,4.6-12.5L65.5,23.3z M65.8,76.5c0.4,0.4,0.6,0.9,0.6,1.4s-0.2,1.1-0.5,1.5
		C65.5,79.8,65,80,64.4,80l-28.4,0.4c-0.6,0-1.1-0.2-1.5-0.5c-0.4-0.4-0.6-0.9-0.6-1.4s0.2-1.1,0.5-1.5c0.4-0.4,0.9-0.6,1.4-0.6
		l28.4-0.4C64.9,75.9,65.4,76.1,65.8,76.5z M77.7,27.2l-8.1,0.1l0.1,6.8c0,1-0.1,2.1-0.2,3.3c2.9-0.3,5-1.3,6.4-3
		C77.3,32.7,77.9,30.3,77.7,27.2z"/>
</g>
</svg>
