<?xml version="1.0" encoding="utf-8"?>
<!-- Generator: Adobe Illustrator 18.1.1, SVG Export Plug-In . SVG Version: 6.00 Build 0)  -->
<!DOCTYPE svg PUBLIC "-//W3C//DTD SVG 1.1//EN" "http://www.w3.org/Graphics/SVG/1.1/DTD/svg11.dtd">
<svg version="1.1" id="Layer_1" xmlns="http://www.w3.org/2000/svg" xmlns:xlink="http://www.w3.org/1999/xlink" x="0px" y="0px"
	 viewBox="0 0 100 100" enable-background="new 0 0 100 100" xml:space="preserve">
<g enable-background="new    ">
	<path fill="#706F6F" d="M68.6,45.2c1.2,1.2,1.8,2.6,1.8,4.3l0,18.2c0,1.6-0.6,3.1-1.8,4.3c-1.2,1.2-2.6,1.8-4.3,1.8l-27.3,0
		c-1.6,0-3.1-0.6-4.3-1.8c-1.2-1.2-1.8-2.6-1.8-4.3l0-18.2c0-1.6,0.6-3.1,1.8-4.3c1.2-1.2,2.6-1.8,4.3-1.8h1.5l0-5.8
		c0-3.5,1.1-6.4,3.4-8.8c2.3-2.4,5.2-3.6,8.7-3.6c3.5,0,6.4,1.2,8.7,3.6c2.3,2.4,3.5,5.3,3.5,8.9l0,5.8h1.5
		C66,43.4,67.4,44,68.6,45.2z M67.4,49.5c0-0.8-0.3-1.5-0.9-2.1c-0.6-0.6-1.3-0.9-2.1-0.9l-27.3,0c-0.8,0-1.5,0.3-2.1,0.9
		c-0.6,0.6-0.9,1.3-0.9,2.1l0,18.2c0,0.8,0.3,1.5,0.9,2.1c0.6,0.6,1.3,0.9,2.1,0.9l27.3,0c0.8,0,1.5-0.3,2.1-0.9
		c0.6-0.6,0.9-1.3,0.9-2.1L67.4,49.5z M41.6,43.4l18.2,0l0-5.8c0-2.7-0.9-4.9-2.6-6.7c-1.7-1.8-3.9-2.7-6.6-2.7
		c-2.7,0-4.9,0.9-6.5,2.7c-1.7,1.8-2.5,4-2.5,6.7L41.6,43.4z M53.7,55.5c0,1.1-0.5,2-1.5,2.7l0,4.9c0,0.4-0.1,0.8-0.4,1.1
		c-0.3,0.3-0.6,0.4-1.1,0.4c-0.4,0-0.8-0.1-1.1-0.4c-0.3-0.3-0.4-0.6-0.4-1.1l0-4.9c-1-0.6-1.5-1.5-1.5-2.7c0-0.8,0.3-1.5,0.9-2.1
		c0.6-0.6,1.3-0.9,2.1-0.9c0.8,0,1.5,0.3,2.1,0.9C53.4,54,53.7,54.7,53.7,55.5z"/>
</g>
</svg>
